<mxfile host="65bd71144e">
    <diagram id="3itqmEO5YHfkDSnpSqWK" name="Page-1">
        <mxGraphModel dx="1509" dy="578" grid="1" gridSize="10" guides="1" tooltips="1" connect="1" arrows="1" fold="1" page="1" pageScale="1" pageWidth="850" pageHeight="1100" math="0" shadow="0">
            <root>
                <mxCell id="0"/>
                <mxCell id="1" parent="0"/>
                <mxCell id="4" value="" style="edgeStyle=none;html=1;entryX=0;entryY=0.5;entryDx=0;entryDy=0;" edge="1" parent="1" source="2" target="22">
                    <mxGeometry relative="1" as="geometry">
                        <mxPoint x="230" y="260" as="targetPoint"/>
                    </mxGeometry>
                </mxCell>
                <mxCell id="26" value="&lt;span style=&quot;color: rgb(63, 63, 63);&quot;&gt;ε&lt;/span&gt;&amp;nbsp;&lt;span style=&quot;color: rgb(63, 63, 63);&quot;&gt;⊥&lt;/span&gt;&amp;nbsp;|&amp;nbsp;&lt;span style=&quot;color: rgb(63, 63, 63);&quot;&gt;⊥&lt;/span&gt;" style="edgeLabel;html=1;align=center;verticalAlign=middle;resizable=0;points=[];" vertex="1" connectable="0" parent="4">
                    <mxGeometry x="-0.2286" y="2" relative="1" as="geometry">
                        <mxPoint x="3" y="-18" as="offset"/>
                    </mxGeometry>
                </mxCell>
                <mxCell id="11" style="edgeStyle=none;html=1;exitX=0;exitY=0;exitDx=0;exitDy=0;" edge="1" parent="1" source="2" target="2">
                    <mxGeometry relative="1" as="geometry">
                        <mxPoint x="200" y="200" as="targetPoint"/>
                        <Array as="points">
                            <mxPoint x="90" y="190"/>
                            <mxPoint x="190" y="190"/>
                        </Array>
                    </mxGeometry>
                </mxCell>
                <mxCell id="12" value="b,&amp;nbsp;&lt;span data-processed=&quot;true&quot; data-sfc-cp=&quot;&quot; class=&quot;T286Pc&quot;&gt;&lt;span style=&quot;color: rgb(63, 63, 63);&quot;&gt;ε&lt;/span&gt;&amp;nbsp;|&amp;nbsp;&lt;/span&gt;&lt;span data-processed=&quot;true&quot; data-sfc-cp=&quot;&quot; class=&quot;T286Pc&quot;&gt;ε&lt;/span&gt;&lt;div&gt;&lt;span data-processed=&quot;true&quot; data-sfc-cp=&quot;&quot; class=&quot;T286Pc&quot;&gt;a, ⊥ | a ⊥&lt;/span&gt;&lt;/div&gt;&lt;div&gt;&lt;span data-processed=&quot;true&quot; data-sfc-cp=&quot;&quot; class=&quot;T286Pc&quot;&gt;a, C | c&lt;/span&gt;&lt;/div&gt;&lt;div&gt;&lt;span data-processed=&quot;true&quot; data-sfc-cp=&quot;&quot; class=&quot;T286Pc&quot;&gt;a,c |&amp;nbsp;&lt;/span&gt;&lt;span style=&quot;color: rgb(63, 63, 63); background-color: light-dark(#ffffff, var(--ge-dark-color, #121212));&quot;&gt;ε&lt;/span&gt;&lt;/div&gt;&lt;div&gt;&lt;span style=&quot;background-color: light-dark(#ffffff, var(--ge-dark-color, #121212)); color: rgb(63, 63, 63);&quot;&gt;a, a | A&lt;/span&gt;&lt;/div&gt;&lt;div&gt;&lt;span style=&quot;color: rgb(63, 63, 63); background-color: light-dark(#ffffff, var(--ge-dark-color, #121212));&quot;&gt;a, A | a A&lt;/span&gt;&lt;/div&gt;&lt;div&gt;&lt;span style=&quot;color: rgb(63, 63, 63);&quot;&gt;c,⊥ | C&amp;nbsp;&lt;/span&gt;&lt;span style=&quot;color: rgb(63, 63, 63); background-color: light-dark(#ffffff, var(--ge-dark-color, #121212));&quot;&gt;⊥&lt;/span&gt;&lt;/div&gt;&lt;div&gt;c, A |&amp;nbsp;&lt;span style=&quot;color: rgb(63, 63, 63); background-color: light-dark(#ffffff, var(--ge-dark-color, #121212));&quot;&gt;ε&lt;/span&gt;&lt;/div&gt;&lt;div&gt;&lt;span style=&quot;color: rgb(63, 63, 63); background-color: light-dark(#ffffff, var(--ge-dark-color, #121212));&quot;&gt;c,c | c C&lt;/span&gt;&lt;/div&gt;&lt;div&gt;&lt;span style=&quot;color: rgb(63, 63, 63); background-color: light-dark(#ffffff, var(--ge-dark-color, #121212));&quot;&gt;c, a | c&lt;/span&gt;&lt;/div&gt;&lt;div&gt;&lt;span style=&quot;color: rgb(63, 63, 63); background-color: light-dark(#ffffff, var(--ge-dark-color, #121212));&quot;&gt;c, C | C C&lt;/span&gt;&lt;/div&gt;" style="edgeLabel;html=1;align=center;verticalAlign=middle;resizable=0;points=[];" vertex="1" connectable="0" parent="11">
                    <mxGeometry x="0.0245" y="2" relative="1" as="geometry">
                        <mxPoint x="-2" y="-78" as="offset"/>
                    </mxGeometry>
                </mxCell>
                <mxCell id="2" value="q0" style="ellipse;whiteSpace=wrap;html=1;aspect=fixed;" vertex="1" parent="1">
                    <mxGeometry x="100" y="220" width="80" height="80" as="geometry"/>
                </mxCell>
                <mxCell id="23" value="" style="group" vertex="1" connectable="0" parent="1">
                    <mxGeometry x="250" y="215" width="90" height="90" as="geometry"/>
                </mxCell>
                <mxCell id="24" value="" style="group" vertex="1" connectable="0" parent="23">
                    <mxGeometry width="90" height="90" as="geometry"/>
                </mxCell>
                <mxCell id="22" value="" style="ellipse;whiteSpace=wrap;html=1;aspect=fixed;" vertex="1" parent="24">
                    <mxGeometry width="90" height="90" as="geometry"/>
                </mxCell>
                <mxCell id="3" value="q1" style="ellipse;whiteSpace=wrap;html=1;aspect=fixed;" vertex="1" parent="24">
                    <mxGeometry x="5" y="5" width="80" height="80" as="geometry"/>
                </mxCell>
            </root>
        </mxGraphModel>
    </diagram>
</mxfile>